<?xml version="1.0" encoding="UTF-8"?>
<svg version="1.1" xmlns="http://www.w3.org/2000/svg" width="1024" height="1024">
<path d="M0 0 C5.99855019 -0.44026056 9.95853237 0.86597863 15.3125 3.5 C16.06015625 3.8616626 16.8078125 4.2233252 17.578125 4.59594727 C23.73744121 7.6749382 28.9543282 11.29610276 34 16 C34.75410156 16.66386719 35.50820313 17.32773438 36.28515625 18.01171875 C40.32936002 21.76457337 43.175834 25.20809778 45.65960693 30.16304016 C48.21381621 34.97513757 50.68037729 38.82267209 55.91430664 40.83496094 C59.78226344 41.98202548 63.71105591 42.72817333 67.68838501 43.38665771 C71.19688185 43.96990942 74.67433807 44.68612766 78.15913391 45.39556885 C79.92340762 45.75383931 81.68896047 46.10586821 83.45573425 46.45159912 C130.5002812 55.72098772 174.41810302 79.00973844 209 112 C209.85207031 112.79921875 210.70414063 113.5984375 211.58203125 114.421875 C218.47259931 121.06286343 224.27996614 128.35740496 230 136 C230.42812988 136.56734863 230.85625977 137.13469727 231.29736328 137.71923828 C247.80203369 159.71064791 259.14315686 184.05673641 268 210 C269.56558694 209.22232531 271.13057182 208.44343853 272.6953125 207.6640625 C273.56687988 207.2304541 274.43844727 206.7968457 275.33642578 206.35009766 C277.05270397 205.48016013 278.75803709 204.58810547 280.44873047 203.66943359 C290.85121782 198.11962599 301.10307836 196.47395012 312.8125 196.625 C313.95033936 196.63442627 315.08817871 196.64385254 316.26049805 196.65356445 C341.38548886 197.10283229 362.91324251 206.61554007 380.45117188 224.47802734 C405.4444467 251.2215569 412.25034041 286.83231799 411.1953125 322.26367188 C409.44729734 355.70320196 396.09146635 388.91373979 374 414 C373.2471875 414.86238281 372.494375 415.72476562 371.71875 416.61328125 C369.50993898 419.10575807 367.26498785 421.55857288 365 424 C364.4121875 424.65355469 363.824375 425.30710937 363.21875 425.98046875 C343.24866837 447.2205775 313.77928805 460.66832939 285 464 C282.32579744 464.07573483 279.67626719 464.0500512 277 464 C277.16081055 465.00562988 277.32162109 466.01125977 277.48730469 467.04736328 C282.87869829 508.61244066 273.87915168 554.33874071 254 591 C253.68450195 591.60005859 253.36900391 592.20011719 253.04394531 592.81835938 C242.50019347 612.85695095 226.65017351 632.49684247 205.3125 641.375 C197.52239024 645.40592889 194.75363815 654.1808918 191.13476562 661.72070312 C170.15949697 703.85175048 119.80376624 732.49765167 77 747 C20.54712733 765.36166127 -40.94386651 760.65955654 -94 734 C-128.56493388 715.95030529 -169.1606379 687.07271844 -182.24609375 648.30859375 C-184.64843352 643.77678576 -187.51999325 642.63003923 -192.0625 640.5625 C-199.13328232 637.07727995 -205.16430985 633.36964545 -211 628 C-211.804375 627.27554688 -212.60875 626.55109375 -213.4375 625.8046875 C-238.53679641 602.03879121 -251.41381161 567.89368244 -258.25 534.75 C-258.47683472 533.65449829 -258.47683472 533.65449829 -258.70825195 532.53686523 C-261.38412899 518.67397881 -262.31292274 504.95821218 -262.20581055 490.86669922 C-262.18725766 488.34202182 -262.18530388 485.8177081 -262.18554688 483.29296875 C-262.18063948 481.66145519 -262.17481459 480.02994408 -262.16796875 478.3984375 C-262.16685593 477.65669281 -262.1657431 476.91494812 -262.16459656 476.15072632 C-262.12410978 471.67430165 -261.726979 467.41843696 -261 463 C-261.99257813 463.18820312 -262.98515625 463.37640625 -264.0078125 463.5703125 C-268.09360399 464.14638245 -271.84796065 463.65261236 -275.875 462.875 C-276.60968506 462.73666748 -277.34437012 462.59833496 -278.10131836 462.45581055 C-303.88818816 457.37420765 -325.6098926 445.62795716 -345 428 C-345.85078125 427.23300781 -346.7015625 426.46601562 -347.578125 425.67578125 C-377.75766686 397.00521649 -393.34588678 356.19967713 -395.125 315.11328125 C-395.82372511 280.30803684 -385.00038732 247.79759383 -360.86547852 222.46508789 C-354.80117018 216.27596237 -348.71543421 211.06594615 -341 207 C-340.030625 206.47019531 -339.06125 205.94039062 -338.0625 205.39453125 C-324.73787215 198.6489384 -311.43432464 196.66174264 -296.625 196.5625 C-295.55612549 196.55234863 -294.48725098 196.54219727 -293.38598633 196.53173828 C-282.55603328 196.65057402 -273.0033137 198.93619072 -263.5 204.125 C-257.96574761 207.10590311 -257.96574761 207.10590311 -252 209 C-251.56171875 207.77410156 -251.1234375 206.54820312 -250.671875 205.28515625 C-243.21468524 184.85326032 -234.3003285 164.99842091 -222 147 C-221.60103516 146.40719238 -221.20207031 145.81438477 -220.79101562 145.20361328 C-208.02814919 126.33162921 -192.25663921 108.69247941 -174 95 C-173.41089844 94.55624023 -172.82179688 94.11248047 -172.21484375 93.65527344 C-136.11146896 66.68714651 -94.29413308 51.81402758 -50.70727539 41.92749023 C-34.49594764 38.19804653 -19.08470541 33.06878655 -9 19 C-8.34257813 18.09507812 -8.34257813 18.09507812 -7.671875 17.171875 C-4.06969656 11.83370696 -2.00422478 6.09105185 0 0 Z M-184.9140625 186.640625 C-206.99168676 211.61231986 -211.76520792 245.69373665 -210 278 C-207.62245376 302.08593237 -198.4089627 326.33633891 -183 345 C-182.23945313 345.92554688 -181.47890625 346.85109375 -180.6953125 347.8046875 C-172.01564991 357.85032978 -160.99524658 367.12629455 -149 373 C-148.34 373 -147.68 373 -147 373 C-147.3717334 373.49701416 -147.7434668 373.99402832 -148.12646484 374.50610352 C-173.73897181 406.01607533 -173.73897181 406.01607533 -181.71875 444.22265625 C-180.04880659 450.67553539 -176.67518588 456.48722118 -173 462 C-168.41551097 461.47167599 -165.32750875 459.44183438 -161.625 456.875 C-152.04304916 450.47250301 -141.80680051 445.96645205 -131 442 C-131.47308594 442.79994385 -131.94617188 443.5998877 -132.43359375 444.42407227 C-137.33279187 452.71773185 -142.20685702 461.02562182 -147.0446167 469.35528564 C-147.84898164 470.74001842 -148.65501167 472.1237838 -149.46142578 473.50732422 C-158.87537788 489.79570557 -164.90286443 507.69078008 -169 526 C-169.24878906 527.08410156 -169.49757813 528.16820312 -169.75390625 529.28515625 C-170.04375148 532.48265527 -169.95223317 533.46158716 -168 536 C-165.7197075 537.84188788 -163.48742922 539.49658461 -161.0625 541.125 C-160.35158203 541.60437012 -159.64066406 542.08374023 -158.90820312 542.57763672 C-131.72743249 560.53087814 -100.50245672 569.86149395 -68.8125 576.25 C-67.11758423 576.60130981 -67.11758423 576.60130981 -65.38842773 576.9597168 C-42.45400021 581.35074572 -19.19415556 582.50506453 4.10449219 582.39111328 C7.99970477 582.37500122 11.89388036 582.39110532 15.7890625 582.41015625 C39.80762542 582.43190844 63.69170264 580.64318739 87.25 575.8125 C88.36426361 575.58998566 88.36426361 575.58998566 89.5010376 575.36297607 C120.16178781 569.21136661 157.11492709 559.37379188 181 538 C182.03125 537.2575 183.0625 536.515 184.125 535.75 C186.66835021 532.01975303 186.33921012 529.78052717 185.69921875 525.39453125 C180.34192327 499.38620851 168.75355375 474.76513178 153.77734375 452.91015625 C151.99338447 449.98916798 150.94321551 447.27926222 150 444 C162.974104 447.70688686 174.97624589 453.9400684 185 463 C191.50313706 459.99229911 194.192147 454.30119124 197 448 C201.00221791 435.99334626 196.16033402 422.15671996 191.0625 411.1875 C186.30831269 402.16882707 180.14944317 394.10324895 174 386 C173.48308594 385.3179248 172.96617187 384.63584961 172.43359375 383.93310547 C169.64804544 380.26843666 166.83712766 376.62486287 164 373 C165.03060547 372.64615234 165.03060547 372.64615234 166.08203125 372.28515625 C169.59791739 370.73666021 172.59280693 368.68107812 175.6875 366.4375 C176.30326904 365.99277344 176.91903809 365.54804688 177.5534668 365.08984375 C203.55347636 346.03557519 218.61680424 318.67945573 224.17529297 287.19506836 C228.46764448 257.92933228 224.6988216 221.42147977 207.375 196.5625 C190.15909012 173.90998701 167.68265863 158.24637108 139.28051758 153.77563477 C97.57858826 148.29167861 49.65149315 161.52429562 16 186.9375 C13.16402989 189.15713002 10.48509991 191.39228003 8 194 C4.79105477 192.61023783 2.22440887 190.67524788 -0.51416016 188.52270508 C-52.79038748 147.89259356 -135.85886865 135.21473405 -184.9140625 186.640625 Z M-338.1875 255.4375 C-348.43933556 269.18380107 -354.39296992 286.89758719 -355 304 C-355.03996094 305.0415625 -355.07992187 306.083125 -355.12109375 307.15625 C-355.75276196 340.15162472 -344.5581118 370.82575868 -321.625 394.6875 C-309.16883776 406.76235116 -293.51536048 414.27312394 -277 419 C-276.14535156 419.24621094 -275.29070312 419.49242187 -274.41015625 419.74609375 C-268.93155833 421.14222151 -263.63156469 421.21162456 -258 421 C-256.07509131 417.66792363 -255.47902059 414.63668369 -254.9296875 410.84375 C-254.75566406 409.65652344 -254.58164063 408.46929688 -254.40234375 407.24609375 C-254.22832031 406.00988281 -254.05429688 404.77367187 -253.875 403.5 C-253.69324219 402.26378906 -253.51148438 401.02757812 -253.32421875 399.75390625 C-252.32742899 392.90401327 -252.32742899 392.90401327 -252 386 C-252.65484375 385.98582031 -253.3096875 385.97164062 -253.984375 385.95703125 C-267.8355185 385.23317206 -281.65443351 378.43090385 -291.18359375 368.32421875 C-297.95693392 359.6572566 -302.79068593 347.58307937 -302.3515625 336.4453125 C-300.67996069 324.81839325 -295.78508502 314.67480902 -288 306 C-290.09113745 301.11027562 -293.2683183 299.18859544 -298 297 C-307.99506998 293.91994822 -317.71985975 294.41787337 -327.125 298.96484375 C-328.80078487 299.89001665 -330.40728103 300.93818735 -332 302 C-329.79806985 291.41999416 -327.0033244 282.50445761 -318.36328125 275.5078125 C-309.91859872 270.11996546 -300.63463089 268.64253076 -290.9453125 270.625 C-280.14496561 273.52581259 -270.71330012 278.8471552 -263 287 C-262.34 286.67 -261.68 286.34 -261 286 C-260.9007498 281.96166211 -260.82835438 277.92380128 -260.78027344 273.88452148 C-260.7602201 272.51199977 -260.73296972 271.13956283 -260.69824219 269.76733398 C-260.64945448 267.78927956 -260.62911124 265.81058881 -260.609375 263.83203125 C-260.58842773 262.64327393 -260.56748047 261.4545166 -260.54589844 260.22973633 C-261.20200932 255.56323589 -263.44930455 253.20803241 -267.0859375 250.375 C-290.67645607 236.20458612 -318.64368881 233.11801135 -338.1875 255.4375 Z M290.3125 246.9375 C289.65354736 247.26105469 288.99459473 247.58460938 288.31567383 247.91796875 C284.18335864 250.07033858 281.17256606 252.52136078 278 256 C277.67 256.33 277.34 256.66 277 257 C276.91216458 259.21855264 276.89305391 261.43988496 276.90234375 263.66015625 C276.90446617 264.65685585 276.90446617 264.65685585 276.90663147 265.6736908 C276.91224482 267.80333899 276.92479946 269.93288339 276.9375 272.0625 C276.94251329 273.50325369 276.94707649 274.94400903 276.95117188 276.38476562 C276.96221855 279.92321102 276.97949208 283.46159539 277 287 C280.61562637 284.6037116 284.1456337 282.1511007 287.625 279.5625 C297.56979559 272.55593947 307.90366313 269.11128954 320 270 C328.52604421 271.63589141 336.26316907 276.13191113 341.375 283.1875 C344.82664987 288.83478271 347 295.35326419 347 302 C346.52691406 301.66226563 346.05382812 301.32453125 345.56640625 300.9765625 C337.60968852 295.61004333 330.53332242 294.36831215 321.00390625 295.390625 C314.45651619 296.71883417 308.27425233 299.75432669 304 305 C304.36351562 305.43828125 304.72703125 305.8765625 305.1015625 306.328125 C314.0043512 317.55933537 319.21640045 329.55765817 318 344 C316.11668052 356.09122761 311.33590856 365.98090747 301.921875 373.92578125 C293.46775726 379.92730066 283.55000038 384.86219509 273.125 385.625 C271.67480469 385.73714844 271.67480469 385.73714844 270.1953125 385.8515625 C269.47085938 385.90054688 268.74640625 385.94953125 268 386 C268.98190664 395.02518442 269.97830414 404.04895586 271.0625 413.0625 C271.14161621 413.74634766 271.22073242 414.43019531 271.30224609 415.13476562 C271.47134454 418.3496846 271.47134454 418.3496846 273 421 C293.58475603 423.4815615 316.69265708 411.14347544 332.3125 399 C353.58825094 381.25876898 367.49038675 353.99956246 370.78466797 326.43261719 C373.11248159 300.13518532 369.63373284 274.23937723 352.3125 253.3125 C343.79393868 244.16233433 333.2865457 239.15916586 320.8125 238.5625 C310.00994444 238.94611348 299.93465313 242.19495411 290.3125 246.9375 Z M-171 563 C-170.57040441 594.9853445 -159.31235834 624.07639776 -138 648 C-137.29488281 648.81339844 -136.58976562 649.62679687 -135.86328125 650.46484375 C-101.84722231 689.12223209 -55.5284693 711.64519219 -4 715 C47.73789015 717.09332518 98.00632264 701.13396692 137.0625 666.625 C138.7174056 665.09307607 140.36283299 663.55086674 142 662 C142.94488281 661.11957031 143.88976562 660.23914063 144.86328125 659.33203125 C162.78854586 642.28531253 175.49300622 621.48854941 183 598 C183.33773438 596.9790625 183.67546875 595.958125 184.0234375 594.90625 C186.91786067 584.93338601 187.23348322 574.31013232 188 564 C184.22115067 565.33528245 181.50286453 567.01400995 178.375 569.5 C162.91752009 580.87243542 144.96357003 587.6453342 127 594 C126.25137695 594.26651367 125.50275391 594.53302734 124.73144531 594.80761719 C51.70461831 620.1375557 -41.43232979 617.69948638 -114 593 C-114.95358398 592.67660645 -115.90716797 592.35321289 -116.88964844 592.02001953 C-135.14930961 585.72914687 -151.53451907 578.12168343 -166.59375 565.93359375 C-168.83034103 563.99664022 -168.83034103 563.99664022 -171 563 Z " fill="#131714" transform="translate(504,127)"/>
<path d="M0 0 C6.81761894 -0.0252689 13.63522589 -0.04283244 20.45288086 -0.05493164 C22.77417451 -0.05997333 25.09546497 -0.06680651 27.41674805 -0.07543945 C30.74528795 -0.08751225 34.07378602 -0.09322979 37.40234375 -0.09765625 C38.44712387 -0.10281754 39.49190399 -0.10797882 40.56834412 -0.11329651 C41.52926468 -0.11337204 42.49018524 -0.11344757 43.48022461 -0.11352539 C44.33071884 -0.115746 45.18121307 -0.11796661 46.05747986 -0.12025452 C48 0 48 0 49 1 C49.09439978 3.26991887 49.11742226 5.54281967 49.11352539 7.81469727 C49.11367142 8.52685394 49.11381744 9.23901062 49.1139679 9.9727478 C49.1132687 12.33733112 49.10547606 14.70183661 49.09765625 17.06640625 C49.09579209 18.70165463 49.09436818 20.33690357 49.09336853 21.97215271 C49.08954318 26.28434785 49.07971275 30.59650952 49.06866455 34.90869141 C49.0584508 39.30565946 49.05387099 43.70263289 49.04882812 48.09960938 C49.03809049 56.73308831 49.02101387 65.36654 49 74 C52.31774561 70.74441013 55.05679048 67.68612366 57.53125 63.74609375 C58.16998047 62.73732178 58.80871094 61.7285498 59.46679688 60.68920898 C60.13775391 59.61614502 60.80871094 58.54308105 61.5 57.4375 C62.21340061 56.30817437 62.92760448 55.1793558 63.64257812 54.05102539 C65.08544007 51.77362058 66.52597486 49.4947732 67.96484375 47.21484375 C69.75616544 44.38517436 71.55892408 41.56382366 73.375 38.75 C74.15025024 37.54404175 74.15025024 37.54404175 74.94116211 36.3137207 C75.98801772 34.71794222 77.05974554 33.1382293 78.15454102 31.57495117 C81.32874439 26.97755568 83.56589897 22.69217796 85.46484375 17.42578125 C88.44008522 10.2624511 91.46855849 3.20360145 99 0 C116.27282314 -3.83147405 135.52814438 -1.45269388 153 0 C151.67118452 2.76402932 150.20525571 5.32555885 148.51660156 7.88452148 C148.02087646 8.63803894 147.52515137 9.3915564 147.0144043 10.16790771 C146.47855713 10.97745911 145.94270996 11.7870105 145.390625 12.62109375 C144.83189697 13.46891418 144.27316895 14.31673462 143.69750977 15.19024658 C141.88392528 17.9408246 140.06708979 20.68923666 138.25 23.4375 C137.00346302 25.32585004 135.75704387 27.21427787 134.51074219 29.1027832 C131.01075904 34.40423841 127.50623117 39.70267558 124 45 C123.57799316 45.63784424 123.15598633 46.27568848 122.72119141 46.93286133 C120.56799414 50.18698714 118.41072503 53.43836843 116.25 56.6875 C115.48079224 57.84862305 115.48079224 57.84862305 114.69604492 59.03320312 C111.80074421 63.38147389 108.82943712 67.66523809 105.80078125 71.921875 C104.74165527 73.42681519 104.74165527 73.42681519 103.66113281 74.9621582 C102.2991021 76.89318058 100.92289293 78.81430878 99.53027344 80.72338867 C96.09699876 85.47805677 96.09699876 85.47805677 94.734375 91.0390625 C96.62550142 95.46336444 99.0790998 99.4026015 101.6875 103.4375 C102.8811891 105.32359839 104.07386279 107.21033973 105.265625 109.09765625 C105.88373047 110.07105957 106.50183594 111.04446289 107.13867188 112.04736328 C110.1278519 116.78911869 113.03235137 121.58146377 115.9375 126.375 C117.11707002 128.31647763 118.29675809 130.25788355 119.4765625 132.19921875 C120.06083008 133.16134277 120.64509766 134.1234668 121.24707031 135.11474609 C123.52962382 138.87174015 125.81611113 142.62632896 128.10351562 146.38037109 C129.2391171 148.24567762 130.37324218 150.11188381 131.50585938 151.97900391 C134.47582961 156.87243912 137.46274818 161.75425903 140.48439026 166.61592102 C142.08337317 169.19147248 143.67435941 171.77191557 145.26449585 174.35293579 C146.04303852 175.61204936 146.82525926 176.86889649 147.61123657 178.12338257 C148.70725588 179.87351046 149.79040129 181.63100486 150.87109375 183.390625 C151.49943115 184.40157227 152.12776855 185.41251953 152.77514648 186.45410156 C154 189 154 189 153 192 C105.80260703 195.90923915 105.80260703 195.90923915 96.09521484 188.55761719 C90.53252914 183.07681281 87.83573337 175.44967661 85.32673645 168.20484924 C82.80441145 160.95409328 78.92105214 154.76445084 74.7923584 148.33047485 C72.95293433 145.44616828 71.18754464 142.51905265 69.4140625 139.59375 C68.8257666 138.63146484 68.2374707 137.66917969 67.63134766 136.67773438 C66.07624257 134.12514645 64.5346474 131.5649287 63 129 C56.6844763 131.68221193 51.76174723 136.75837487 49 143 C47.25181395 150.91244697 47.74174371 159.20485871 47.875 167.25 C47.91625 174.7575 47.9575 182.265 48 190 C32.16 190.33 16.32 190.66 0 191 C-0.72846924 185.90071533 -1.13209726 181.26454659 -1.08229065 176.17286682 C-1.07906152 175.41551221 -1.07583239 174.6581576 -1.07250541 173.87785286 C-1.0605046 171.35674775 -1.04111691 168.83575554 -1.02172852 166.31469727 C-1.01157784 164.50088237 -1.00188503 162.68706485 -0.99261475 160.87324524 C-0.96621275 155.9605572 -0.93341733 151.04793031 -0.89946485 146.13528943 C-0.86504339 140.99702911 -0.83651454 135.85873613 -0.80735779 130.72044373 C-0.75128017 120.99542378 -0.68991127 111.27044472 -0.62663645 101.54546922 C-0.55484433 90.47178095 -0.48895839 79.39805999 -0.42356598 68.32433236 C-0.28894428 45.54951249 -0.1469139 22.77474366 0 0 Z " fill="#131714" transform="translate(520,352)"/>
<path d="M0 0 C49.83 0 99.66 0 151 0 C151 14.19 151 28.38 151 43 C149.40134037 44.59865963 147.69543968 44.16483531 145.48022461 44.20532227 C144.51930405 44.22526749 143.55838348 44.24521271 142.56834412 44.26576233 C141.523564 44.28247482 140.47878387 44.29918732 139.40234375 44.31640625 C138.33834854 44.33718735 137.27435333 44.35796844 136.17811584 44.37937927 C132.7646456 44.44499254 129.35109571 44.50381423 125.9375 44.5625 C123.62954891 44.60567403 121.321606 44.64928794 119.01367188 44.69335938 C113.34253318 44.80068584 107.67131448 44.90242992 102 45 C101.99576806 45.64400725 101.99153612 46.28801451 101.98717594 46.95153713 C101.88340537 62.69658807 101.77470316 78.44159633 101.66066074 94.18657589 C101.60562459 101.8010461 101.55219491 109.41552097 101.50268555 117.0300293 C101.45947714 123.67480458 101.41311355 130.3195495 101.36312145 136.96427733 C101.33681161 140.47534487 101.31197267 143.98640755 101.29092598 147.49751091 C101.20487304 161.69287548 101.09857477 175.84092374 100 190 C84.74276308 191.52572369 69.32742112 190.4257617 54 190 C54 141.82 54 93.64 54 44 C36.51 44 19.02 44 1 44 C0.67 43.67 0.34 43.34 0 43 C0 28.81 0 14.62 0 0 Z " fill="#131714" transform="translate(349,352)"/>
<path d="M0 0 C8.56401575 6.26477774 14.02966483 13.0201103 15.71875 23.609375 C16.26013806 28.21117353 16.604461 31.64715872 14.6875 35.9375 C14.130625 36.618125 13.57375 37.29875 13 38 C10 38 10 38 7.94140625 36.05859375 C7.15636719 35.19363281 6.37132812 34.32867188 5.5625 33.4375 C-0.74202255 26.91046489 -9.04431884 20.32485534 -18.4375 19.8125 C-21.82910632 19.9910056 -23.27477346 20.12389668 -26 22 C-26.91160093 24.17208588 -26.91160093 24.17208588 -27.25 26.625 C-27.39953125 27.44226563 -27.5490625 28.25953125 -27.703125 29.1015625 C-27.80109375 29.72804688 -27.8990625 30.35453125 -28 31 C-31.46475274 30.93070495 -34.0684222 30.80173399 -36.765625 28.48046875 C-41.14413585 23.43242832 -42.44682589 19.8140949 -42 13 C-39.93291235 4.42240005 -34.31579252 -0.49923279 -27 -5 C-17.41023073 -9.58641139 -8.42516871 -5.17177467 0 0 Z " fill="#131714" transform="translate(486,568)"/>
<path d="M0 0 C4.19051804 3.29065943 6.43870272 6.4235923 7.91796875 11.64453125 C8.59458426 17.63877291 8.44348283 22.53861431 4.91796875 27.64453125 C2.04876109 30.59128506 0.74086887 31.58242558 -3.39453125 31.89453125 C-4.28140625 31.81203125 -5.16828125 31.72953125 -6.08203125 31.64453125 C-6.57703125 27.18953125 -6.57703125 27.18953125 -7.08203125 22.64453125 C-13.43226116 20.16639275 -18.39572572 19.64737722 -24.70703125 22.39453125 C-30.74863335 25.59630195 -35.42971811 30.27753027 -40.296875 35 C-43.08203125 37.64453125 -43.08203125 37.64453125 -46.08203125 39.64453125 C-48.4840063 37.81597199 -49.04311424 36.89451171 -49.515625 33.859375 C-49.53150421 20.53672039 -45.41899545 12.17601553 -36.08203125 2.64453125 C-24.68818744 -6.74414597 -12.57101457 -8.18413144 0 0 Z " fill="#131714" transform="translate(572.08203125,567.35546875)"/>
<path d="M0 0 C0.33 0 0.66 0 1 0 C1.33 12.87 1.66 25.74 2 39 C5.57457031 38.94199219 9.14914062 38.88398438 12.83203125 38.82421875 C16.28716818 38.78524535 19.74228079 38.75487367 23.19750977 38.7253418 C25.60224332 38.70016899 28.00690015 38.66602818 30.41137695 38.62280273 C33.86428733 38.56227533 37.31618795 38.53381756 40.76953125 38.51171875 C42.38683891 38.47300911 42.38683891 38.47300911 44.03681946 38.43351746 C46.77931055 38.43248258 49.30788126 38.47822246 52 39 C56.07413184 43.22383747 56.12357338 49.10516514 56.14044189 54.74417114 C56.14615204 55.89103394 56.15186218 57.03789673 56.15774536 58.21951294 C56.15886322 59.46852386 56.15998108 60.71753479 56.16113281 62.00439453 C56.16576471 63.34015031 56.17078987 64.67590477 56.17617798 66.01165771 C56.18926111 69.63128185 56.19573797 73.25088749 56.20018864 76.87053156 C56.20312368 79.13179808 56.20722912 81.39305959 56.21169281 83.65432358 C56.2253519 90.72949802 56.23502846 97.80466094 56.2388947 104.87984765 C56.24338312 113.04815335 56.26097378 121.21629235 56.2898953 129.38454735 C56.31148367 135.70056984 56.32159732 142.01654529 56.32293582 148.33260429 C56.32398514 152.10479836 56.32992079 155.87683538 56.34775543 159.64899063 C56.36723812 163.8508958 56.36295861 168.0524493 56.35644531 172.25439453 C56.37026749 174.13398361 56.37026749 174.13398361 56.3843689 176.05154419 C56.37879974 177.19276733 56.37323059 178.33399048 56.36749268 179.50979614 C56.36895924 180.50344744 56.3704258 181.49709873 56.3719368 182.52086067 C56 185 56 185 53 188 C53 139.82 53 91.64 53 42 C35.51 42 18.02 42 0 42 C0 28.14 0 14.28 0 0 Z " fill="#373934" transform="translate(350,354)"/>
<path d="M0 0 C10.23 0 20.46 0 31 0 C31 0.66 31 1.32 31 2 C21.43 2 11.86 2 2 2 C2.00523682 4.2992041 2.01047363 6.5984082 2.01586914 8.96728516 C2.03912076 19.85318102 2.05310978 30.73908388 2.0625 41.625 C2.06335602 42.61027679 2.06421204 43.59555359 2.06509399 44.61068726 C2.0870404 73.24431343 1.94975342 101.86975089 1.5 130.5 C1.48804218 131.26171761 1.47608437 132.02343521 1.46376419 132.80823517 C1.32047407 141.87235709 1.1666067 150.93627434 1 160 C0.67 160 0.34 160 0 160 C0 107.2 0 54.4 0 0 Z " fill="#030504" transform="translate(520,352)"/>
<path d="M0 0 C0.33 0 0.66 0 1 0 C1.06058594 0.83144531 1.12117188 1.66289062 1.18359375 2.51953125 C1.26738281 3.60621094 1.35117187 4.69289063 1.4375 5.8125 C1.51871094 6.89144531 1.59992188 7.97039062 1.68359375 9.08203125 C1.90212461 12.05989905 1.90212461 12.05989905 3 15 C2 16 2 16 0.05747986 16.12025452 C-0.79301437 16.11803391 -1.64350861 16.11581329 -2.51977539 16.11352539 C-3.96115623 16.11341209 -3.96115623 16.11341209 -5.43165588 16.11329651 C-6.476436 16.10813522 -7.52121613 16.10297394 -8.59765625 16.09765625 C-9.66165146 16.0962413 -10.72564667 16.09482635 -11.82188416 16.09336853 C-15.23545083 16.08775064 -18.648953 16.07519511 -22.0625 16.0625 C-24.37044176 16.05748731 -26.67838455 16.052924 -28.98632812 16.04882812 C-34.65757426 16.0377754 -40.32878253 16.02101987 -46 16 C-46 15.01 -46 14.02 -46 13 C-23.725 12.505 -23.725 12.505 -1 12 C-0.67 8.04 -0.34 4.08 0 0 Z " fill="#393B35" transform="translate(497,380)"/>
<path d="M0 0 C0.66 0 1.32 0 2 0 C2.33 2.64 2.66 5.28 3 8 C3.33 8 3.66 8 4 8 C4 11.3 4 14.6 4 18 C3.01 17.67 2.02 17.34 1 17 C0.80083984 15.75283203 0.80083984 15.75283203 0.59765625 14.48046875 C0.42105469 13.39378906 0.24445313 12.30710937 0.0625 11.1875 C-0.11152344 10.10855469 -0.28554687 9.02960938 -0.46484375 7.91796875 C-0.93871921 4.95066644 -0.93871921 4.95066644 -2 2 C-1.34 1.34 -0.68 0.68 0 0 Z " fill="#1C1F1B" transform="translate(146,437)"/>
<path d="M0 0 C1.65 0 3.3 0 5 0 C3.84826645 2.46800047 2.95216435 4.04783565 1 6 C1 5.01 1 4.02 1 3 C-7.91 3 -16.82 3 -26 3 C-26 2.67 -26 2.34 -26 2 C-17.42 1.67 -8.84 1.34 0 1 C0 0.67 0 0.34 0 0 Z " fill="#1C1F1B" transform="translate(668,352)"/>
<path d="M0 0 C1.06723961 3.46222615 1.10173486 6.64039266 1.0625 10.25 C1.05347656 11.32765625 1.04445312 12.4053125 1.03515625 13.515625 C1.02355469 14.33546875 1.01195312 15.1553125 1 16 C0.01 15.67 -0.98 15.34 -2 15 C-2.21755666 9.5610835 -2.10428384 5.12919186 0 0 Z " fill="#1C1D1A" transform="translate(203,455)"/>
<path d="M0 0 C0.33 0 0.66 0 1 0 C2.38529821 5.45461169 3.2396943 10.36718401 3 16 C2.67 16 2.34 16 2 16 C1.67 17.65 1.34 19.3 1 21 C0.67 21 0.34 21 0 21 C0 14.07 0 7.14 0 0 Z " fill="#21241F" transform="translate(242,392)"/>
<path d="M0 0 C0.66 0 1.32 0 2 0 C0.33864749 4.26173035 -2.74435318 7.03991533 -5.9375 10.1875 C-6.47568359 10.73341797 -7.01386719 11.27933594 -7.56835938 11.84179688 C-10.01160618 14.27299314 -11.68733927 15.89577976 -15 17 C-13.59122859 13.6911933 -11.96249555 11.88532142 -9.1875 9.625 C-6.55896606 7.41626821 -4.25696522 5.25450385 -2.125 2.5625 C-1.42375 1.716875 -0.7225 0.87125 0 0 Z " fill="#0B0B0A" transform="translate(849,512)"/>
<path d="M0 0 C0.99 0 1.98 0 3 0 C3 1.65 3 3.3 3 5 C2.34 5 1.68 5 1 5 C1.185625 5.928125 1.37125 6.85625 1.5625 7.8125 C2 11 2 11 1 14 C0.01 14 -0.98 14 -2 14 C-1.34 9.38 -0.68 4.76 0 0 Z " fill="#1B1C1A" transform="translate(690,706)"/>
<path d="M0 0 C3.73044765 1.24348255 4.79540326 2.80713575 7 6 C7 6.99 7 7.98 7 9 C7.66 9.66 8.32 10.32 9 11 C7.02 11 5.04 11 3 11 C2.67 8.03 2.34 5.06 2 2 C1.34 2 0.68 2 0 2 C0 1.34 0 0.68 0 0 Z " fill="#1F201D" transform="translate(563,588)"/>
<path d="M0 0 C2.4808995 0.94274181 4.79283825 1.9317206 7.125 3.1875 C6.795 4.1775 6.465 5.1675 6.125 6.1875 C5.135 5.8575 4.145 5.5275 3.125 5.1875 C3.125 4.5275 3.125 3.8675 3.125 3.1875 C1.990625 3.06375 0.85625 2.94 -0.3125 2.8125 C-1.488125 2.60625 -2.66375 2.4 -3.875 2.1875 C-4.205 1.5275 -4.535 0.8675 -4.875 0.1875 C-2.875 -0.8125 -2.875 -0.8125 0 0 Z " fill="#1B1C1B" transform="translate(666.875,574.8125)"/>
<path d="M0 0 C0.33 0 0.66 0 1 0 C0.88541307 1.43836751 0.75790884 2.87570966 0.625 4.3125 C0.55539062 5.11300781 0.48578125 5.91351562 0.4140625 6.73828125 C0 9 0 9 -2 12 C-3 11 -3 11 -3.25 7.6875 C-2.99402037 3.91180043 -2.62097144 2.62097144 0 0 Z " fill="#222320" transform="translate(447,577)"/>
<path d="M0 0 C2.97 0.495 2.97 0.495 6 1 C5.67 2.98 5.34 4.96 5 7 C4.01 7 3.02 7 2 7 C1.34 4.69 0.68 2.38 0 0 Z " fill="#1C1D1A" transform="translate(653,570)"/>
<path d="M0 0 C0.99 0.33 1.98 0.66 3 1 C3.94921875 3.28515625 3.94921875 3.28515625 4.6875 6.0625 C4.93886719 6.98160156 5.19023437 7.90070312 5.44921875 8.84765625 C5.63097656 9.55792969 5.81273437 10.26820313 6 11 C5.34 11 4.68 11 4 11 C3.32591692 9.73308493 2.66099503 8.46129251 2 7.1875 C1.62875 6.47980469 1.2575 5.77210938 0.875 5.04296875 C0 3 0 3 0 0 Z " fill="#1D1E1B" transform="translate(323,776)"/>
<path d="M0 0 C3.19902639 -0.08886184 5.92677456 0.08941469 9 1 C9 1.99 9 2.98 9 4 C6.36 3.67 3.72 3.34 1 3 C0.67 2.01 0.34 1.02 0 0 Z " fill="#191D19" transform="translate(427,728)"/>
<path d="M0 0 C0.99 0.33 1.98 0.66 3 1 C2.67 3.64 2.34 6.28 2 9 C1.01 9 0.02 9 -1 9 C-0.67 6.03 -0.34 3.06 0 0 Z " fill="#1B1E1A" transform="translate(775,658)"/>
<path d="M0 0 C1.51953125 1.20703125 1.51953125 1.20703125 3 3 C3.07421875 5.26171875 3.07421875 5.26171875 2.6875 7.6875 C2.50767578 8.89986328 2.50767578 8.89986328 2.32421875 10.13671875 C2.21722656 10.75160156 2.11023438 11.36648438 2 12 C1.67 10.68 1.34 9.36 1 8 C0.34 8 -0.32 8 -1 8 C-0.67 5.36 -0.34 2.72 0 0 Z " fill="#1C1E1B" transform="translate(321,551)"/>
<path d="M0 0 C0.99 0 1.98 0 3 0 C4.25 7.625 4.25 7.625 2 11 C1.34 7.37 0.68 3.74 0 0 Z " fill="#1C1F1C" transform="translate(871,408)"/>
<path d="M0 0 C0.99 0 1.98 0 3 0 C3 0.66 3 1.32 3 2 C4.32 2 5.64 2 7 2 C7 2.66 7 3.32 7 4 C7.66 4.33 8.32 4.66 9 5 C8.01 5.495 8.01 5.495 7 6 C5.0546875 5.22265625 5.0546875 5.22265625 2.875 4.0625 C2.15054687 3.68222656 1.42609375 3.30195312 0.6796875 2.91015625 C0.12539063 2.60980469 -0.42890625 2.30945313 -1 2 C-0.67 1.34 -0.34 0.68 0 0 Z " fill="#20211E" transform="translate(359,706)"/>
<path d="M0 0 C2 2 2 2 2.125 5.625 C2.08375 6.73875 2.0425 7.8525 2 9 C1.01 9 0.02 9 -1 9 C-1.625 6.1875 -1.625 6.1875 -2 3 C-1.34 2.01 -0.68 1.02 0 0 Z " fill="#1E201C" transform="translate(779,634)"/>
<path d="M0 0 C0.66 0.99 1.32 1.98 2 3 C1.67 3.99 1.34 4.98 1 6 C1.66 6.33 2.32 6.66 3 7 C2.34 8.65 1.68 10.3 1 12 C0.67 12 0.34 12 0 12 C0 9.36 0 6.72 0 4 C-0.66 3.67 -1.32 3.34 -2 3 C-2 2.34 -2 1.68 -2 1 C-1.34 0.67 -0.68 0.34 0 0 Z " fill="#202320" transform="translate(521,511)"/>
<path d="M0 0 C0.66 0.33 1.32 0.66 2 1 C-1.17320782 4.53586014 -3.16743695 6.58578031 -8 7 C-5.42215154 4.35247996 -3.08351902 2.05567935 0 0 Z " fill="#0F100E" transform="translate(343,213)"/>
<path d="M0 0 C3.63 0.33 7.26 0.66 11 1 C6.78370866 3.10814567 4.60209225 3.17700355 0 3 C0 2.01 0 1.02 0 0 Z " fill="#1E1F1C" transform="translate(447,705)"/>
<path d="M0 0 C0.66 0.99 1.32 1.98 2 3 C1.01 4.32 0.02 5.64 -1 7 C-1.99 6.67 -2.98 6.34 -4 6 C-3.6875 4.125 -3.6875 4.125 -3 2 C-2.01 1.34 -1.02 0.68 0 0 Z " fill="#1C1F1C" transform="translate(683,490)"/>
<path d="M0 0 C-2.59482129 2.59482129 -4.39883625 2.69990302 -8 3 C-8.66 2.34 -9.32 1.68 -10 1 C-6.21812119 -0.83691257 -4.05431692 -1.15837626 0 0 Z " fill="#1C1F1B" transform="translate(595,826)"/>
<path d="M0 0 C0.66 0 1.32 0 2 0 C2.33 1.32 2.66 2.64 3 4 C3.66 4 4.32 4 5 4 C5 5.98 5 7.96 5 10 C2.35534962 6.8745041 1.15585285 3.91211733 0 0 Z " fill="#1B1C19" transform="translate(672,604)"/>
<path d="M0 0 C0.33 0.66 0.66 1.32 1 2 C0.0625 4.125 0.0625 4.125 -1 6 C-1.66 6 -2.32 6 -3 6 C-3.33 7.32 -3.66 8.64 -4 10 C-4.33 9.01 -4.66 8.02 -5 7 C-2 2 -2 2 0 0 Z " fill="#0C0E0C" transform="translate(450,570)"/>
<path d="M0 0 C2 0 4 0 6 0 C6 1.98 6 3.96 6 6 C4.02 5.01 2.04 4.02 0 3 C0 2.01 0 1.02 0 0 Z " fill="#191D1A" transform="translate(210,490)"/>
<path d="M0 0 C0.33 0 0.66 0 1 0 C1.66 3.63 2.32 7.26 3 11 C2.01 11.33 1.02 11.66 0 12 C-0.19573608 10.56359829 -0.38127816 9.12580496 -0.5625 7.6875 C-0.66691406 6.88699219 -0.77132812 6.08648437 -0.87890625 5.26171875 C-1 3 -1 3 0 0 Z " fill="#20211E" transform="translate(151,461)"/>
<path d="M0 0 C2.10814567 4.21629134 2.17700355 6.39790775 2 11 C1.01 11 0.02 11 -1 11 C-0.67 7.37 -0.34 3.74 0 0 Z " fill="#1C1E1B" transform="translate(728,407)"/>
<path d="M0 0 C0.99 0.99 1.98 1.98 3 3 C-0.465 4.485 -0.465 4.485 -4 6 C-4.33 5.01 -4.66 4.02 -5 3 C-3.35 2.01 -1.7 1.02 0 0 Z " fill="#1F211E" transform="translate(539,299)"/>
<path d="M0 0 C2.25 -0.25 2.25 -0.25 5 0 C7.3125 2 7.3125 2 9 4 C2.25 3.125 2.25 3.125 0 2 C0 1.34 0 0.68 0 0 Z " fill="#1B1D1A" transform="translate(674,581)"/>
<path d="M0 0 C0.99 0 1.98 0 3 0 C3.66 2.31 4.32 4.62 5 7 C4.34 7 3.68 7 3 7 C3 6.34 3 5.68 3 5 C2.34 5 1.68 5 1 5 C0.67 3.35 0.34 1.7 0 0 Z " fill="#1C1E1B" transform="translate(298,433)"/>
<path d="M0 0 C0 0.99 0 1.98 0 3 C-3.375 3.125 -3.375 3.125 -7 3 C-7.66 2.34 -8.32 1.68 -9 1 C-5.92677456 0.08941469 -3.19902639 -0.08886184 0 0 Z " fill="#1C1E1B" transform="translate(557,734)"/>
<path d="M0 0 C0.33 0.99 0.66 1.98 1 3 C-2.32534757 4.10844919 -4.62182575 3.84454356 -8 3 C-5.22569089 1.15046059 -3.35957737 0 0 0 Z " fill="#1F201C" transform="translate(467,561)"/>
<path d="M0 0 C5.75 1.75 5.75 1.75 8 4 C4.25 5.125 4.25 5.125 2 4 C2 3.34 2 2.68 2 2 C1.34 2 0.68 2 0 2 C0 1.34 0 0.68 0 0 Z " fill="#20211E" transform="translate(644,193)"/>
<path d="M0 0 C0 0.66 0 1.32 0 2 C-2.31 2.33 -4.62 2.66 -7 3 C-7 2.01 -7 1.02 -7 0 C-2.25 -1.125 -2.25 -1.125 0 0 Z " fill="#1A1C19" transform="translate(563,877)"/>
</svg>
